<svg xmlns="http://www.w3.org/2000/svg" width="760" height="270" viewBox="0 0 760 270">
<rect width="760" height="270" fill="white"/>
<g font-family="Arial" fill="#162b3c" text-anchor="middle">
<text x="190" y="25" font-size="18">Common target: one proposal per substep</text>
<text x="570" y="25" font-size="18">Per-task: update after each admission</text>
<text x="190" y="60" font-size="16">Candidate destinations: 0, 0, 0, 0</text>
<text x="570" y="60" font-size="16">Candidate destinations: 0, 1, 2, 0</text>
</g>
<g fill="#f3f6f8" stroke="#40576b" stroke-width="1.5">
<rect x="35" y="92" width="90" height="95" rx="5"/><rect x="145" y="92" width="90" height="95" rx="5"/><rect x="255" y="92" width="90" height="95" rx="5"/>
<rect x="415" y="92" width="90" height="95" rx="5"/><rect x="525" y="92" width="90" height="95" rx="5"/><rect x="635" y="92" width="90" height="95" rx="5"/>
</g>
<g font-family="Arial" text-anchor="middle" fill="#162b3c" font-size="16">
<text x="80" y="120">RSU 0</text><text x="190" y="120">RSU 1</text><text x="300" y="120">RSU 2</text>
<text x="80" y="158">120 ms</text><text x="190" y="158">0 ms</text><text x="300" y="158">0 ms</text>
<text x="460" y="120">RSU 0</text><text x="570" y="120">RSU 1</text><text x="680" y="120">RSU 2</text>
<text x="460" y="158">80 ms</text><text x="570" y="158">40 ms</text><text x="680" y="158">40 ms</text>
<text x="380" y="220" font-size="14">Illustration: four viable 40 ms tasks; 100 ms deadlines; three initially empty homogeneous RSUs.</text>
<text x="380" y="246" font-size="14">Common: 3 admitted, 2 meet deadline. Per-task: 4 admitted, 4 meet deadline. Illustrative only.</text>
</g></svg>
